<svg width="305.27129063813425" height="304.91562500000003" viewBox="0 0 350 349.5922218133033" class="looka-1j8o68f"><defs id="SvgjsDefs2630"></defs><g id="SvgjsG2631" featurekey="X3o6dM-0" transform="matrix(21.551721910477237,0,0,21.551721910477237,-3.448249736946819,-169.82759167428313)" fill="#1e3a8a"><path d="M14.64 21.4 q0.24 0.04 0.54 0.13 t0.57 0.24 t0.46 0.36 t0.19 0.49 q0 0.26 -0.19 0.38 t-0.46 0.17 t-0.57 0.04 t-0.52 -0.01 l-5.36 0 t-3.64 0.01 t-2.25 0.01 t-1.22 0.01 t-0.53 0.01 l-0.18 0 q-0.5 0 -0.91 -0.14 t-0.41 -0.44 q0 -0.26 0.2 -0.39 t0.51 -0.19 t0.67 -0.06 l0.66 0 q0.98 0 1.92 -0.06 t1.9 -0.16 q-0.16 -1.04 -0.22 -2.5 t-0.06 -2.99 t0.03 -2.96 t0.07 -2.41 q0 -0.62 0.03 -1.17 t0.09 -0.97 t0.16 -0.67 t0.26 -0.25 q0.32 0 0.55 0.2 t0.39 0.5 t0.23 0.64 t0.05 0.6 q-0.06 1.92 -0.11 3.37 t-0.1 2.53 t-0.08 1.83 t-0.03 1.23 q-0.02 0.3 -0.06 0.68 t-0.1 0.78 t-0.14 0.79 t-0.2 0.69 q0.92 -0.08 1.87 -0.18 t1.93 -0.17 t1.99 -0.07 t2.07 0.1 z"></path></g></svg>