<svg width="396" height="166.99005668019458" viewBox="0 0 350 147.5922218133033" class="looka-1j8o68f"><defs id="SvgjsDefs5905"></defs><g id="SvgjsG5906" featurekey="X3o6dM-0" transform="matrix(8.391428287120773,0,0,8.391428287120773,-1.3426184925671933,-66.12446386552408)" fill="#423b89"><path d="M14.64 21.4 q0.24 0.04 0.54 0.13 t0.57 0.24 t0.46 0.36 t0.19 0.49 q0 0.26 -0.19 0.38 t-0.46 0.17 t-0.57 0.04 t-0.52 -0.01 l-5.36 0 t-3.64 0.01 t-2.25 0.01 t-1.22 0.01 t-0.53 0.01 l-0.18 0 q-0.5 0 -0.91 -0.14 t-0.41 -0.44 q0 -0.26 0.2 -0.39 t0.51 -0.19 t0.67 -0.06 l0.66 0 q0.98 0 1.92 -0.06 t1.9 -0.16 q-0.16 -1.04 -0.22 -2.5 t-0.06 -2.99 t0.03 -2.96 t0.07 -2.41 q0 -0.62 0.03 -1.17 t0.09 -0.97 t0.16 -0.67 t0.26 -0.25 q0.32 0 0.55 0.2 t0.39 0.5 t0.23 0.64 t0.05 0.6 q-0.06 1.92 -0.11 3.37 t-0.1 2.53 t-0.08 1.83 t-0.03 1.23 q-0.02 0.3 -0.06 0.68 t-0.1 0.78 t-0.14 0.79 t-0.2 0.69 q0.92 -0.08 1.87 -0.18 t1.93 -0.17 t1.99 -0.07 t2.07 0.1 z M11.459999999999999 15.84 q0 -0.48 0.25 -0.66 t0.55 -0.14 t0.52 0.26 t0.16 0.54 q-0.08 0.36 -0.15 0.9 t-0.09 1.04 t0.03 0.86 t0.23 0.36 q0.12 0 0.29 -0.31 t0.33 -0.73 t0.3 -0.84 t0.18 -0.64 q0.06 -0.2 0.2 -0.27 t0.27 -0.04 t0.22 0.15 t0.03 0.3 q-0.04 0.12 -0.13 0.45 t-0.23 0.73 t-0.33 0.83 t-0.44 0.76 t-0.55 0.51 t-0.66 0.08 q-0.54 -0.16 -0.77 -0.59 t-0.27 -1 t0.01 -1.24 t0.05 -1.31 z M13.739999999999998 13.1 q0.04 0.22 -0.05 0.41 t-0.27 0.34 t-0.42 0.25 t-0.5 0.14 q-0.5 0.06 -0.98 -0.1 t-0.54 -0.58 q-0.08 -0.44 0.27 -0.75 t0.93 -0.41 t1.04 0.09 t0.52 0.61 z M14.28 13.440000000000001 q0 -0.14 0.01 -0.27 t0.01 -0.23 q0 -0.48 0.26 -0.67 t0.56 -0.17 t0.53 0.22 t0.17 0.52 l-0.1 0.52 l0.48 0 q0.38 0 0.55 0.13 t0.17 0.28 t-0.18 0.27 t-0.5 0.12 l-0.6 0 q-0.08 0.72 -0.14 1.59 t-0.08 1.64 t0.02 1.28 t0.18 0.51 q0.12 0 0.33 -0.36 t0.43 -0.83 t0.4 -0.92 t0.24 -0.61 q0.04 -0.18 0.18 -0.24 t0.27 -0.03 t0.22 0.14 t0.03 0.29 q-0.12 0.4 -0.32 1.04 t-0.5 1.24 t-0.72 1.04 t-1 0.44 q-0.38 0 -0.62 -0.3 t-0.36 -0.79 t-0.15 -1.13 t-0.01 -1.32 t0.08 -1.37 t0.1 -1.27 l-0.48 0 q-0.32 0 -0.49 -0.12 t-0.18 -0.26 t0.15 -0.26 t0.52 -0.12 l0.54 0 z M31.64 21.4 q0.24 0.04 0.54 0.13 t0.57 0.24 t0.46 0.36 t0.19 0.49 q0 0.26 -0.19 0.38 t-0.46 0.17 t-0.57 0.04 t-0.52 -0.01 l-5.36 0 t-3.64 0.01 t-2.25 0.01 t-1.22 0.01 t-0.53 0.01 l-0.18 0 q-0.5 0 -0.91 -0.14 t-0.41 -0.44 q0 -0.26 0.2 -0.39 t0.51 -0.19 t0.67 -0.06 l0.66 0 q0.98 0 1.92 -0.06 t1.9 -0.16 q-0.16 -1.04 -0.22 -2.5 t-0.06 -2.99 t0.03 -2.96 t0.07 -2.41 q0 -0.62 0.03 -1.17 t0.09 -0.97 t0.16 -0.67 t0.26 -0.25 q0.32 0 0.55 0.2 t0.39 0.5 t0.23 0.64 t0.05 0.6 q-0.06 1.92 -0.11 3.37 t-0.1 2.53 t-0.08 1.83 t-0.03 1.23 q-0.02 0.3 -0.06 0.68 t-0.1 0.78 t-0.14 0.79 t-0.2 0.69 q0.92 -0.08 1.87 -0.18 t1.93 -0.17 t1.99 -0.07 t2.07 0.1 z M28.459999999999997 15.84 q0 -0.48 0.25 -0.66 t0.55 -0.14 t0.52 0.26 t0.16 0.54 q-0.08 0.36 -0.15 0.9 t-0.09 1.04 t0.03 0.86 t0.23 0.36 q0.12 0 0.29 -0.31 t0.33 -0.73 t0.3 -0.84 t0.18 -0.64 q0.06 -0.2 0.2 -0.27 t0.27 -0.04 t0.22 0.15 t0.03 0.3 q-0.04 0.12 -0.13 0.45 t-0.23 0.73 t-0.33 0.83 t-0.44 0.76 t-0.55 0.51 t-0.66 0.08 q-0.54 -0.16 -0.77 -0.59 t-0.27 -1 t0.01 -1.24 t0.05 -1.31 z M30.74 13.1 q0.04 0.22 -0.05 0.41 t-0.27 0.34 t-0.42 0.25 t-0.5 0.14 q-0.5 0.06 -0.98 -0.1 t-0.54 -0.58 q-0.08 -0.44 0.27 -0.75 t0.93 -0.41 t1.04 0.09 t0.52 0.61 z M31.139999999999997 15.52 q0.06 -0.4 0.34 -0.6 t0.57 -0.22 t0.51 0.12 t0.18 0.44 q-0.04 0.28 -0.11 0.63 t-0.13 0.7 t-0.09 0.66 t-0.01 0.51 q0.16 -0.54 0.37 -0.97 t0.43 -0.73 q0.16 -0.2 0.44 -0.31 t0.54 -0.1 t0.42 0.15 t0.06 0.4 q-0.06 0.18 -0.11 0.56 t-0.05 0.77 t0.04 0.68 t0.14 0.29 q0.12 0 0.32 -0.22 t0.4 -0.53 t0.37 -0.66 t0.25 -0.61 q0.04 -0.18 0.17 -0.24 t0.25 -0.04 t0.2 0.13 t0.04 0.29 q-0.06 0.28 -0.28 0.76 t-0.52 0.94 t-0.66 0.81 t-0.7 0.35 q-0.58 0 -0.83 -0.31 t-0.33 -0.7 t-0.06 -0.76 t-0.02 -0.47 q-0.1 0.04 -0.21 0.28 t-0.21 0.56 t-0.18 0.67 t-0.1 0.59 q-0.04 0.26 -0.27 0.39 t-0.5 0.13 t-0.49 -0.14 t-0.2 -0.44 q0.02 -0.34 0 -0.82 t-0.04 -1.01 t-0.02 -1.03 t0.08 -0.9 z M41.199999999999996 16.42 q0.08 -0.18 0.22 -0.23 t0.26 -0.01 t0.17 0.15 t-0.03 0.29 q-0.12 0.28 -0.33 0.82 t-0.5 1.09 t-0.69 0.97 t-0.9 0.46 q-0.6 0.04 -0.87 -0.3 t-0.36 -0.82 t-0.06 -0.96 t0.07 -0.7 q0 -0.1 -0.1 -0.1 t-0.25 0.06 t-0.3 0.17 t-0.23 0.23 q-0.02 0.76 -0.03 1.42 t0.01 1.1 q0 0.28 -0.21 0.41 t-0.48 0.12 t-0.48 -0.16 t-0.21 -0.45 q0.02 -0.5 0.05 -1.26 t0.05 -1.62 t0.04 -1.75 t0.03 -1.66 t0.01 -1.34 l0 -0.79 q-0.02 -0.38 0.23 -0.61 t0.55 -0.31 t0.54 0 t0.2 0.3 q-0.02 0.14 -0.06 0.66 t-0.08 1.28 t-0.08 1.67 t-0.06 1.83 q0.46 -0.56 0.85 -1.05 t0.47 -0.97 q0.02 -0.22 0.33 -0.34 t0.64 -0.12 t0.57 0.14 t0.12 0.4 q-0.14 0.3 -0.49 0.6 t-0.73 0.58 t-0.72 0.52 t-0.46 0.42 q0.14 -0.04 0.47 -0.15 t0.64 -0.14 t0.5 0.11 t0.05 0.6 q-0.12 0.36 -0.14 0.74 t0.02 0.67 t0.15 0.44 t0.27 0.05 q0.18 -0.12 0.36 -0.42 t0.36 -0.67 t0.34 -0.75 t0.28 -0.62 z"></path></g><g id="SvgjsG5907" featurekey="RFbU7s-0" transform="matrix(0.5018820906604609,0,0,0.5018820906604609,34.39774122795981,136.1091595215561)" fill="#423b89"><path d="M12.04 20 l-2.78 0 l-3.12 -4.76 l-0.12 0 l-2.2 0 l0 4.76 l-2.62 0 l0 -14 l4.82 0 c3.14 0 5.12 1.92 5.12 4.7 c0 1.94 -0.96 3.38 -2.6 4.08 z M3.82 8.42 l0 4.56 l2.06 0 c1.58 0 2.64 -0.68 2.64 -2.28 c0 -1.58 -1.06 -2.28 -2.64 -2.28 l-2.06 0 z M30.3 17.58 l6.1 0 l0 2.42 l-6.5 0 l-2.22 0 l0 -14 l2.62 0 l5.92 0 l0 2.42 l-5.92 0 l0 3.36 l4.5 0 l0 2.36 l-4.5 0 l0 3.44 z M63.160000000000004 20 l-1.16 -2.7 l-6.92 0 l-1.16 2.7 l-2.78 0 l6.24 -14 l2.34 0 l6.22 14 l-2.78 0 z M56 15.16 l5.08 0 l-2.54 -5.92 z M86.18 6 c4 0 7.08 3.1 7.08 6.94 c0 3.96 -3.08 7.06 -7.08 7.06 l-4.8 0 l0 -14 l4.8 0 z M86.16000000000001 17.52 c2.84 0 4.44 -2.06 4.44 -4.58 c0 -2.4 -1.6 -4.46 -4.44 -4.46 l-2.16 0 l0 9.04 l2.16 0 z M107.9 22.88 l1.8 -5.14 l2.2 0 l-1.78 5.14 l-2.22 0 z M149.5 17.58 l5.68 0 l0 2.42 l-8.3 0 l0 -14 l2.62 0 l0 11.58 z M173.64 6 l0 14 l-2.62 0 l0 -14 l2.62 0 z M199.18 6 l2.62 0 l0 14 l-2 0 l-7.3 -9.22 l0 9.22 l-2.62 0 l0 -14 l2.02 0 l7.28 9.24 l0 -9.24 z M227.12 20 l-4.6 -6.1 l-1.78 2 l0 4.1 l-2.7 0 l0 -14 l2.7 0 l0 6.4 l5.56 -6.4 l3.24 0 l-5.38 6.06 l6 7.94 l-3.04 0 z M244.5 22.88 l1.8 -5.14 l2.2 0 l-1.78 5.14 l-2.22 0 z M294.7 20 l-1.16 -2.7 l-6.92 0 l-1.16 2.7 l-2.78 0 l6.24 -14 l2.34 0 l6.22 14 l-2.78 0 z M287.53999999999996 15.16 l5.08 0 l-2.54 -5.92 z M322.21999999999997 6 l2.62 0 l0 14 l-2 0 l-7.3 -9.22 l0 9.22 l-2.62 0 l0 -14 l2.02 0 l7.28 9.24 l0 -9.24 z M345.88 6 c4 0 7.08 3.1 7.08 6.94 c0 3.96 -3.08 7.06 -7.08 7.06 l-4.8 0 l0 -14 l4.8 0 z M345.86 17.52 c2.84 0 4.44 -2.06 4.44 -4.58 c0 -2.4 -1.6 -4.46 -4.44 -4.46 l-2.16 0 l0 9.04 l2.16 0 z M391.26 6 l0 14 l-2.62 0 l0 -14 l2.62 0 z M416.8 6 l2.62 0 l0 14 l-2 0 l-7.3 -9.22 l0 9.22 l-2.62 0 l0 -14 l2.02 0 l7.28 9.24 l0 -9.24 z M440.18000000000006 5.76 c2.38 0 3.96 1.52 4.66 2.9 l-1.94 1.14 c-0.74 -1.1 -1.54 -1.72 -2.72 -1.72 c-1.12 0 -1.92 0.66 -1.92 1.56 c0 0.86 0.52 1.36 1.72 1.8 l0.96 0.36 c2.98 1.06 4.28 2.36 4.28 4.36 c0 2.72 -2.58 4.14 -4.96 4.14 c-2.5 0 -4.46 -1.48 -5.1 -3.44 l2.02 -1.06 c0.5 1.12 1.44 2.12 3.08 2.12 c1.24 0 2.24 -0.6 2.24 -1.72 c0 -1.14 -0.72 -1.64 -2.28 -2.22 l-0.9 -0.32 c-2.08 -0.76 -3.66 -1.8 -3.66 -4.12 c0 -2.2 2.02 -3.78 4.52 -3.78 z M465.78000000000003 6 c3.14 0 5.12 1.92 5.12 4.7 s-1.98 4.54 -5.12 4.54 l-2.2 0 l0 4.76 l-2.62 0 l0 -14 l4.82 0 z M465.64000000000004 12.98 c1.58 0 2.64 -0.68 2.64 -2.28 c0 -1.58 -1.06 -2.28 -2.64 -2.28 l-2.06 0 l0 4.56 l2.06 0 z M489.26000000000005 6 l0 14 l-2.62 0 l0 -14 l2.62 0 z M516.34 20 l-2.78 0 l-3.12 -4.76 l-0.12 0 l-2.2 0 l0 4.76 l-2.62 0 l0 -14 l4.82 0 c3.14 0 5.12 1.92 5.12 4.7 c0 1.94 -0.96 3.38 -2.6 4.08 z M508.12000000000006 8.42 l0 4.56 l2.06 0 c1.58 0 2.64 -0.68 2.64 -2.28 c0 -1.58 -1.06 -2.28 -2.64 -2.28 l-2.06 0 z M534.6000000000001 17.58 l6.1 0 l0 2.42 l-6.5 0 l-2.22 0 l0 -14 l2.62 0 l5.92 0 l0 2.42 l-5.92 0 l0 3.36 l4.5 0 l0 2.36 l-4.5 0 l0 3.44 z M557.62 20.1 c-0.84 0 -1.48 -0.64 -1.48 -1.48 s0.64 -1.48 1.48 -1.48 s1.48 0.64 1.48 1.48 s-0.64 1.48 -1.48 1.48 z"></path></g></svg>